<svg width="50" height="50" viewBox="0 0 50 50" fill="none" xmlns="http://www.w3.org/2000/svg">
<path d="M7.03125 35.1562H28.9062C29.1135 35.1562 29.3122 35.0739 29.4587 34.9274C29.6052 34.7809 29.6875 34.5822 29.6875 34.375C29.6875 34.1678 29.6052 33.9691 29.4587 33.8226C29.3122 33.6761 29.1135 33.5938 28.9062 33.5938H7.03125C6.82405 33.5938 6.62534 33.6761 6.47882 33.8226C6.33231 33.9691 6.25 34.1678 6.25 34.375C6.25 34.5822 6.33231 34.7809 6.47882 34.9274C6.62534 35.0739 6.82405 35.1562 7.03125 35.1562Z" fill="#FD7400"/>
<path d="M7.03125 39.0625H28.9062C29.1135 39.0625 29.3122 38.9802 29.4587 38.8337C29.6052 38.6872 29.6875 38.4885 29.6875 38.2812C29.6875 38.074 29.6052 37.8753 29.4587 37.7288C29.3122 37.5823 29.1135 37.5 28.9062 37.5H7.03125C6.82405 37.5 6.62534 37.5823 6.47882 37.7288C6.33231 37.8753 6.25 38.074 6.25 38.2812C6.25 38.4885 6.33231 38.6872 6.47882 38.8337C6.62534 38.9802 6.82405 39.0625 7.03125 39.0625Z" fill="#FD7400"/>
<path d="M7.03125 26.5625H25.7812C25.9885 26.5625 26.1872 26.4802 26.3337 26.3337C26.4802 26.1872 26.5625 25.9885 26.5625 25.7812V21.0938C26.5625 20.8865 26.4802 20.6878 26.3337 20.5413C26.1872 20.3948 25.9885 20.3125 25.7812 20.3125H7.03125C6.82405 20.3125 6.62534 20.3948 6.47882 20.5413C6.33231 20.6878 6.25 20.8865 6.25 21.0938V25.7812C6.25 25.9885 6.33231 26.1872 6.47882 26.3337C6.62534 26.4802 6.82405 26.5625 7.03125 26.5625ZM7.8125 21.875H25V25H7.8125V21.875Z" fill="#FD7400"/>
<path d="M7.03125 31.25H13.2812C13.4885 31.25 13.6872 31.1677 13.8337 31.0212C13.9802 30.8747 14.0625 30.676 14.0625 30.4688C14.0625 30.2615 13.9802 30.0628 13.8337 29.9163C13.6872 29.7698 13.4885 29.6875 13.2812 29.6875H7.03125C6.82405 29.6875 6.62534 29.7698 6.47882 29.9163C6.33231 30.0628 6.25 30.2615 6.25 30.4688C6.25 30.676 6.33231 30.8747 6.47882 31.0212C6.62534 31.1677 6.82405 31.25 7.03125 31.25Z" fill="#FD7400"/>
<path d="M16.4062 29.6875C16.199 29.6875 16.0003 29.7698 15.8538 29.9163C15.7073 30.0628 15.625 30.2615 15.625 30.4688C15.625 30.676 15.7073 30.8747 15.8538 31.0212C16.0003 31.1677 16.199 31.25 16.4062 31.25H21.0938C21.301 31.25 21.4997 31.1677 21.6462 31.0212C21.7927 30.8747 21.875 30.676 21.875 30.4688C21.875 30.2615 21.7927 30.0628 21.6462 29.9163C21.4997 29.7698 21.301 29.6875 21.0938 29.6875H16.4062Z" fill="#FD7400"/>
<path d="M35.9375 39.0625C36.5556 39.0625 37.1598 38.8792 37.6737 38.5359C38.1876 38.1925 38.5881 37.7044 38.8246 37.1334C39.0612 36.5624 39.123 35.934 39.0025 35.3279C38.8819 34.7217 38.5843 34.1648 38.1472 33.7278C37.7102 33.2908 37.1534 32.9931 36.5472 32.8725C35.941 32.752 35.3126 32.8139 34.7416 33.0504C34.1706 33.2869 33.6825 33.6874 33.3392 34.2013C32.9958 34.7153 32.8125 35.3194 32.8125 35.9375C32.8134 36.766 33.143 37.5603 33.7288 38.1462C34.3147 38.732 35.109 39.0616 35.9375 39.0625ZM35.9375 34.375C36.2465 34.375 36.5486 34.4666 36.8056 34.6383C37.0625 34.81 37.2628 35.0541 37.3811 35.3396C37.4993 35.6251 37.5303 35.9392 37.47 36.2423C37.4097 36.5454 37.2609 36.8238 37.0424 37.0424C36.8238 37.2609 36.5454 37.4097 36.2423 37.47C35.9392 37.5303 35.6251 37.4993 35.3396 37.3811C35.0541 37.2628 34.81 37.0625 34.6383 36.8056C34.4666 36.5486 34.375 36.2465 34.375 35.9375C34.3755 35.5233 34.5403 35.1261 34.8332 34.8332C35.1261 34.5403 35.5233 34.3755 35.9375 34.375Z" fill="#FD7400"/>
<path d="M33.8129 23.8792C34.797 24.8236 35.9186 25.6133 37.1394 26.2216C37.247 26.2748 37.3654 26.3026 37.4854 26.3027C37.6054 26.3028 37.7238 26.2752 37.8315 26.2222C39.0576 25.614 40.1844 24.8235 41.1735 23.8777C43.5368 21.6111 44.903 18.6397 45.2337 15.046C45.247 14.9011 45.2196 14.7553 45.1545 14.6251C45.0894 14.4949 44.9893 14.3855 44.8654 14.3092C43.1823 13.2726 40.374 11.5475 37.9073 10.0336C37.7842 9.95806 37.6425 9.91811 37.4981 9.91821C37.3536 9.91832 37.212 9.95847 37.089 10.0342L30.1353 14.3152C30.0114 14.3915 29.9112 14.5009 29.8461 14.6311C29.781 14.7613 29.7536 14.9071 29.767 15.0521C30.0978 18.6437 31.4587 21.6136 33.8129 23.8792ZM37.4992 11.6165C39.6632 12.9446 42.0231 14.3945 43.6264 15.3813C43.2592 18.3742 42.0715 20.8516 40.092 22.7499C39.3127 23.495 38.4364 24.1315 37.4868 24.6423C36.5423 24.132 35.671 23.4966 34.8964 22.7533C32.9245 20.8557 31.7408 18.3794 31.3742 15.3873L37.4992 11.6165Z" fill="#FD7400"/>
<path d="M36.7188 21.0938C36.8214 21.0939 36.923 21.0738 37.0178 21.0345C37.1126 20.9952 37.1987 20.9376 37.2712 20.865L41.1775 16.9587C41.324 16.8122 41.4063 16.6135 41.4063 16.4063C41.4063 16.1991 41.324 16.0003 41.1775 15.8538C41.0309 15.7073 40.8322 15.625 40.625 15.625C40.4178 15.625 40.2191 15.7073 40.0726 15.8538L36.7188 19.2077L35.7087 18.1976C35.5622 18.0511 35.3635 17.9687 35.1563 17.9687C34.9491 17.9687 34.7503 18.0511 34.6038 18.1976C34.4573 18.3441 34.375 18.5428 34.375 18.75C34.375 18.9572 34.4573 19.1559 34.6038 19.3025L36.1663 20.865C36.2388 20.9376 36.3249 20.9952 36.4197 21.0345C36.5145 21.0738 36.6162 21.0939 36.7188 21.0938Z" fill="#FD7400"/>
<path d="M5.46875 43.7501H39.8438C40.8794 43.749 41.8723 43.337 42.6046 42.6047C43.3369 41.8724 43.7488 40.8795 43.75 39.8439V25.7304C46.0183 23.3831 48.4334 19.4385 48.4334 13.2812C48.4334 13.1478 48.3992 13.0166 48.3342 12.9002C48.2691 12.7837 48.1753 12.6859 48.0617 12.6159L37.9096 6.36594C37.7852 6.29151 37.6429 6.2522 37.4979 6.2522C37.353 6.2522 37.2107 6.29151 37.0863 6.36594L26.9342 12.6159C26.8206 12.6859 26.7267 12.7838 26.6617 12.9003C26.5966 13.0167 26.5625 13.1479 26.5625 13.2814C26.5618 14.0643 26.6029 14.8466 26.6857 15.6251H5.46875C4.43311 15.6263 3.44021 16.0382 2.7079 16.7705C1.97559 17.5028 1.56366 18.4957 1.5625 19.5314V39.8439C1.56366 40.8795 1.97559 41.8724 2.7079 42.6047C3.44021 43.337 4.43311 43.749 5.46875 43.7501ZM37.4979 7.94729L46.8667 13.7151C46.775 18.4458 45.1733 22.2945 42.1026 25.1604C40.765 26.4158 39.2024 27.4075 37.4969 28.0834C35.8125 27.4185 34.2681 26.4429 32.9441 25.2075C29.8402 22.3378 28.2215 18.4729 28.1292 13.7151L37.4979 7.94729ZM3.125 19.5314C3.12572 18.91 3.37289 18.3143 3.81227 17.8749C4.25165 17.4355 4.84737 17.1883 5.46875 17.1876H26.9164C27.7602 21.6578 29.9665 24.5825 31.8833 26.3548C34.5186 28.7911 37.1432 29.6188 37.2536 29.6528C37.3282 29.6758 37.4059 29.6876 37.484 29.6876H37.5119C37.59 29.6876 37.6677 29.6758 37.7423 29.6528C37.8399 29.6228 39.8949 28.974 42.1875 27.1482V39.8439C42.1868 40.4653 41.9396 41.061 41.5002 41.5004C41.0608 41.9397 40.4651 42.1869 39.8438 42.1876H5.46875C4.84737 42.1869 4.25165 41.9397 3.81227 41.5004C3.37289 41.061 3.12572 40.4653 3.125 39.8439V19.5314Z" fill="#FD7400"/>
</svg>
