<svg width="115" height="110" viewBox="0 0 115 110" fill="none" xmlns="http://www.w3.org/2000/svg">
<circle cx="50" cy="60" r="49.5" stroke="#FD7400"/>
<path d="M68.2812 55H62.3255L57.9409 41.8463C57.2467 39.7637 54.4763 39.3349 53.1888 41.1214C52.6751 41.8341 52.5398 42.7208 52.8176 43.5541L56.6328 55H43.3671L47.1824 43.5541C47.7659 41.8035 46.4657 40 44.6208 40C43.4566 40 42.4272 40.742 42.0591 41.8463L37.6745 55H31.7188C30.771 55 30 55.771 30 56.7188V59.5312C30 60.3298 30.5473 61.0027 31.2866 61.1949L32.3847 77.6663C32.472 78.9749 33.5677 80 34.8791 80H43.0512C43.7205 80 44.3222 79.6281 44.6216 79.0295C44.7078 78.8571 44.8811 78.75 45.0738 78.75H54.9262C55.1191 78.75 55.2923 78.8571 55.3785 79.0295C55.6778 79.6281 56.2795 80 56.9488 80H65.1209C66.4325 80 67.5282 78.9749 67.6154 77.6663L68.7135 61.1949C69.4526 61.0027 70 60.3298 70 59.5312V56.7188C70 55.771 69.229 55 68.2812 55V55ZM54.0034 43.1588C53.6899 42.2186 54.3884 41.25 55.3792 41.25C56.0044 41.25 56.5573 41.6485 56.755 42.2416L61.0078 55H57.9504L54.0034 43.1588ZM43.2449 42.2416C43.6177 41.1231 45.1056 40.8927 45.7973 41.8523C46.0731 42.235 46.1458 42.7112 45.9966 43.1588L42.0495 55H38.9922L43.2449 42.2416ZM66.368 77.5832C66.3245 78.2375 65.7766 78.75 65.1209 78.75H56.9488C56.7559 78.75 56.5827 78.6429 56.4965 78.4705C56.1972 77.8719 55.5955 77.5 54.9262 77.5H45.0738C44.4045 77.5 43.8028 77.8719 43.5034 78.4705C43.4172 78.6429 43.2439 78.75 43.0512 78.75H34.8791C34.2234 78.75 33.6755 78.2374 33.632 77.5831L32.543 61.25H67.457L66.368 77.5832ZM68.75 59.5312C68.75 59.7898 68.5398 60 68.2812 60C66.6796 60 33.2775 60 31.7188 60C31.4602 60 31.25 59.7898 31.25 59.5312V56.7188C31.25 56.4602 31.4602 56.25 31.7188 56.25H68.2812C68.5398 56.25 68.75 56.4602 68.75 56.7188V59.5312Z" fill="#FD7400"/>
<path d="M50 75.625C51.0338 75.625 51.875 74.7839 51.875 73.75V65.625C51.875 64.5911 51.0338 63.75 50 63.75C48.9661 63.75 48.125 64.5911 48.125 65.625V73.75C48.125 74.7839 48.9661 75.625 50 75.625ZM49.375 65.625C49.375 65.2804 49.6554 65 50 65C50.3446 65 50.625 65.2804 50.625 65.625V73.75C50.625 74.0946 50.3446 74.375 50 74.375C49.6554 74.375 49.375 74.0946 49.375 73.75V65.625Z" fill="#FD7400"/>
<path d="M56.3235 75.625C57.3137 75.625 58.135 74.8506 58.1932 73.8621L58.6713 65.7328C58.7345 64.6584 57.8782 63.75 56.8018 63.75C55.8116 63.75 54.9903 64.5244 54.9321 65.5129L54.454 73.6422C54.3908 74.7166 55.2471 75.625 56.3235 75.625ZM55.7018 73.7156L56.1799 65.5863C56.1993 65.2576 56.4724 65 56.8017 65C57.1591 65 57.4447 65.2999 57.4234 65.6594L56.9453 73.7887C56.9259 74.1174 56.6528 74.375 56.3235 74.375C55.9662 74.375 55.6806 74.0751 55.7018 73.7156Z" fill="#FD7400"/>
<path d="M62.5735 75.625C63.5637 75.625 64.385 74.8506 64.4432 73.8621L64.9213 65.7328C64.9845 64.6584 64.1282 63.75 63.0518 63.75C62.0616 63.75 61.2403 64.5244 61.1821 65.5129L60.704 73.6422C60.6408 74.7166 61.4971 75.625 62.5735 75.625ZM61.9518 73.7156L62.4299 65.5863C62.4493 65.2576 62.7224 65 63.0517 65C63.4091 65 63.6947 65.2999 63.6734 65.6594L63.1953 73.7887C63.1759 74.1174 62.9028 74.375 62.5735 74.375C62.2162 74.375 61.9306 74.0751 61.9518 73.7156Z" fill="#FD7400"/>
<path d="M41.8071 73.8621C41.9032 75.4964 43.9164 76.2278 45.0393 75.0371C45.3917 74.6634 45.5764 74.1549 45.5464 73.6422L45.0682 65.5129C44.972 63.8786 42.9588 63.1472 41.8359 64.338C41.4835 64.7117 41.2988 65.2201 41.3289 65.7328L41.8071 73.8621ZM42.7453 65.1956C43.1187 64.7997 43.7882 65.0425 43.8203 65.5863L44.2985 73.7156C44.3086 73.8885 44.2488 74.0533 44.1299 74.1795C43.7565 74.5753 43.087 74.3325 43.055 73.7888L42.5767 65.6595C42.5666 65.4864 42.6264 65.3217 42.7453 65.1956V65.1956Z" fill="#FD7400"/>
<path d="M35.5571 73.8621C35.6532 75.4964 37.6664 76.2278 38.7893 75.0371C39.1417 74.6634 39.3264 74.1549 39.2964 73.6422L38.8182 65.5129C38.722 63.8786 36.7088 63.1472 35.5859 64.338C35.2335 64.7117 35.0488 65.2201 35.0789 65.7328L35.5571 73.8621ZM36.4953 65.1956C36.8687 64.7997 37.5382 65.0425 37.5703 65.5863L38.0485 73.7156C38.0586 73.8885 37.9988 74.0533 37.8799 74.1795C37.5065 74.5753 36.837 74.3325 36.805 73.7888L36.3267 65.6594C36.3166 65.4864 36.3764 65.3217 36.4953 65.1956Z" fill="#FD7400"/>
<g filter="url(#filter0_d_174_244)">
<circle cx="85" cy="30" r="20" fill="white"/>
</g>
<path d="M84.484 36H86.554V22.878H82.81V24.75H84.484V36Z" fill="#FD7400"/>
<defs>
<filter id="filter0_d_174_244" x="55" y="0" width="60" height="60" filterUnits="userSpaceOnUse" color-interpolation-filters="sRGB">
<feFlood flood-opacity="0" result="BackgroundImageFix"/>
<feColorMatrix in="SourceAlpha" type="matrix" values="0 0 0 0 0 0 0 0 0 0 0 0 0 0 0 0 0 0 127 0" result="hardAlpha"/>
<feOffset/>
<feGaussianBlur stdDeviation="5"/>
<feColorMatrix type="matrix" values="0 0 0 0 0.766667 0 0 0 0 0.766667 0 0 0 0 0.766667 0 0 0 0.5 0"/>
<feBlend mode="normal" in2="BackgroundImageFix" result="effect1_dropShadow_174_244"/>
<feBlend mode="normal" in="SourceGraphic" in2="effect1_dropShadow_174_244" result="shape"/>
</filter>
</defs>
</svg>
