<svg width="50" height="50" viewBox="0 0 50 50" fill="none" xmlns="http://www.w3.org/2000/svg">
<path d="M46.4998 22.5941L45.205 17.4149C45.559 17.3397 45.8246 17.0256 45.8246 16.6494V15.8143C45.8246 14.0012 44.3495 12.5262 42.5365 12.5262H36.6389V10.8038C36.6389 9.91157 35.9131 9.18579 35.0209 9.18579H4.9582C4.06602 9.18579 3.34023 9.91157 3.34023 10.8038V25.0001C3.34023 25.4324 3.69072 25.783 4.12314 25.783C4.55547 25.783 4.90605 25.4325 4.90605 25.0001V10.8038C4.90605 10.775 4.92939 10.7516 4.9582 10.7516H35.0208C35.0496 10.7516 35.0729 10.775 35.0729 10.8038V25.0002C35.0729 25.4326 35.4234 25.7832 35.8559 25.7832C36.2882 25.7832 36.6388 25.4327 36.6388 25.0002V24.1127H45.874C45.8748 24.1127 45.8754 24.1129 45.8761 24.1129C45.8769 24.1129 45.8775 24.1128 45.8782 24.1128C47.0146 24.1136 47.9796 24.8595 48.311 25.8874H45.8767C45.4443 25.8874 45.0938 26.2378 45.0938 26.6703V28.3404C45.0938 29.693 46.1941 30.7934 47.5468 30.7934H48.4341V34.238H46.387C45.7146 32.2963 43.8687 30.8977 41.7013 30.8977C39.5338 30.8977 37.6879 32.2963 37.0155 34.238H36.6386V28.3403C36.6386 27.908 36.2881 27.5574 35.8557 27.5574C35.4233 27.5574 35.0728 27.9079 35.0728 28.3403V34.2378H18.8298C18.1573 32.2961 16.3115 30.8975 14.144 30.8975C11.9766 30.8975 10.1307 32.2961 9.4583 34.2378H4.9582C4.92939 34.2378 4.90605 34.2145 4.90605 34.1857V32.4633H8.29854C8.73086 32.4633 9.08145 32.1128 9.08145 31.6804C9.08145 31.248 8.73096 30.8975 8.29854 30.8975H0.78291C0.350586 30.8975 0 31.248 0 31.6804C0 32.1128 0.350488 32.4633 0.78291 32.4633H3.34033V34.1857C3.34033 35.0779 4.06611 35.8037 4.9583 35.8037H9.18721C9.18701 35.821 9.18584 35.8383 9.18584 35.8558C9.18584 38.5898 11.4102 40.814 14.144 40.814C16.8779 40.814 19.1022 38.5898 19.1022 35.8558C19.1022 35.8382 19.1011 35.821 19.1009 35.8037H36.7444C36.7442 35.821 36.7431 35.8383 36.7431 35.8558C36.7431 38.5898 38.9674 40.814 41.7013 40.814C44.4352 40.814 46.6595 38.5898 46.6595 35.8558C46.6595 35.8382 46.6583 35.821 46.6581 35.8037H49.217C49.6493 35.8037 49.9999 35.4532 49.9999 35.0208V26.6701C50 24.6084 48.4788 22.8954 46.4998 22.5941ZM36.6389 14.0919H42.5365C43.4862 14.0919 44.2589 14.8646 44.2589 15.8143V15.8665H36.6389V14.0919ZM36.6389 22.547V17.4322H43.5954L44.8741 22.547H36.6389ZM14.144 39.2485C12.2734 39.2485 10.7516 37.7267 10.7516 35.856C10.7516 33.9853 12.2734 32.4635 14.144 32.4635C16.0146 32.4635 17.5365 33.9853 17.5365 35.856C17.5365 37.7267 16.0146 39.2485 14.144 39.2485ZM41.7015 39.2485C39.8309 39.2485 38.309 37.7267 38.309 35.856C38.309 33.9853 39.8309 32.4635 41.7015 32.4635C43.5721 32.4635 45.0939 33.9853 45.0939 35.856C45.0939 37.7267 43.5721 39.2485 41.7015 39.2485ZM48.4343 29.2276H47.547C47.0577 29.2276 46.6597 28.8295 46.6597 28.3403V27.453H48.4342V29.2276H48.4343Z" fill="#FD7400"/>
<path d="M14.1441 34.238C13.2519 34.238 12.5261 34.9638 12.5261 35.856C12.5261 36.7482 13.2519 37.474 14.1441 37.474C15.0363 37.474 15.7621 36.7482 15.7621 35.856C15.7621 34.9638 15.0363 34.238 14.1441 34.238Z" fill="#FD7400"/>
<path d="M41.7015 34.238C40.8093 34.238 40.0835 34.9638 40.0835 35.856C40.0835 36.7482 40.8093 37.474 41.7015 37.474C42.5937 37.474 43.3194 36.7482 43.3194 35.856C43.3194 34.9638 42.5937 34.238 41.7015 34.238Z" fill="#FD7400"/>
<path d="M32.5157 30.8977H20.8247C20.3923 30.8977 20.0417 31.2482 20.0417 31.6806C20.0417 32.113 20.3922 32.4635 20.8247 32.4635H32.5157C32.948 32.4635 33.2986 32.113 33.2986 31.6806C33.2986 31.2482 32.9481 30.8977 32.5157 30.8977Z" fill="#FD7400"/>
<path d="M12.474 27.5574H2.45308C2.02075 27.5574 1.67017 27.9079 1.67017 28.3403C1.67017 28.7727 2.02065 29.1232 2.45308 29.1232H12.474C12.9063 29.1232 13.2569 28.7727 13.2569 28.3403C13.2569 27.9079 12.9063 27.5574 12.474 27.5574Z" fill="#FD7400"/>
<path d="M27.2238 16.9307C26.9181 16.625 26.4223 16.625 26.1166 16.9307L19.1545 23.8928L15.5327 20.271C15.227 19.9652 14.7313 19.9652 14.4256 20.271C14.1198 20.5767 14.1198 21.0724 14.4256 21.3781L18.601 25.5535C18.7538 25.7064 18.9542 25.7828 19.1545 25.7828C19.3548 25.7828 19.5553 25.7064 19.708 25.5535L27.2237 18.0379C27.5294 17.732 27.5294 17.2364 27.2238 16.9307Z" fill="#FD7400"/>
</svg>
