<svg width="40" height="40" viewBox="0 0 40 40" fill="none" xmlns="http://www.w3.org/2000/svg">
<path d="M33.683 13.683C33.683 6.12609 27.5569 0 20 0C12.443 0 6.31695 6.12609 6.31695 13.683C4.36332 13.9263 2.51611 15.2033 2.51611 18.168V25.3136C2.51611 28.6583 4.85743 29.8746 7.07712 29.8746H9.2816C9.7014 29.8746 10.0418 29.5342 10.0418 29.1144V14.3976C10.0418 13.9778 9.7014 13.6374 9.2816 13.6374H7.83728C7.83728 6.92018 13.2827 1.47472 20 1.47472C26.7172 1.47472 32.1626 6.92018 32.1626 13.6374H30.7183C30.2985 13.6374 29.9581 13.9778 29.9581 14.3976V29.0916C29.9581 29.5114 30.2985 29.8518 30.7183 29.8518H32.1626C31.9498 35.0741 29.4412 36.298 24.4317 36.5184V36.0091C24.4317 35.1694 23.7511 34.4888 22.9114 34.4888H18.1299C17.2902 34.4888 16.6096 35.1694 16.6096 36.0091V38.4797C16.6096 39.3194 17.2902 40 18.1299 40H22.9266C23.7663 40 24.4469 39.3194 24.4469 38.4797V38.0388C29.2664 37.8183 33.4321 36.8225 33.683 29.8062C35.6366 29.5629 37.4838 28.2858 37.4838 25.3212V18.1756C37.4838 15.1957 35.6442 13.9263 33.683 13.683ZM8.52143 15.1045V28.3314H7.03911C5.91406 28.3314 3.99844 27.9361 3.99844 25.2908V18.1452C3.99844 15.5226 5.89126 15.1045 7.03911 15.1045H8.52143ZM22.9266 37.3318V38.4873H18.1299V36.0167H22.9266V37.3318ZM35.9635 25.3136C35.9635 27.9361 34.0707 28.3542 32.9228 28.3542H31.4785V15.1577H32.9608C34.0859 15.1577 36.0015 15.553 36.0015 18.1984L35.9635 25.3136Z" fill="#FD7400"/>
</svg>
