<svg width="115" height="110" viewBox="0 0 115 110" fill="none" xmlns="http://www.w3.org/2000/svg">
<circle cx="50" cy="60" r="49.5" stroke="#FD7400"/>
<g clip-path="url(#clip0_174_260)">
<path d="M69.9971 48.1269C69.9971 47.9812 70.1758 48.5613 67.7502 41.2847C67.4946 40.518 66.7798 40.0027 65.9715 40.0027C55.62 40.0027 40.1423 40.0027 34.0269 40.0027C33.2186 40.0027 32.5039 40.5179 32.2483 41.2847C29.707 48.9084 30.0674 47.8249 30.0325 47.933C29.9898 48.0639 30.0015 48.0245 30.0015 49.3767C30.0015 50.5657 30.4789 51.6448 31.2513 52.434V71.2493C31.2513 72.6277 32.3727 73.7491 33.7511 73.7491H43.0122L42.5956 76.2488H41.719C40.7714 76.2488 40.0005 77.0197 40.0005 77.9674V79.3735C40.0005 79.7186 40.2803 79.9984 40.6254 79.9984H59.3733C59.7185 79.9984 59.9983 79.7186 59.9983 79.3735V77.9674C59.9983 77.0197 59.2273 76.2488 58.2797 76.2488H57.4031L56.9865 73.7491H66.2477C67.626 73.7491 68.7474 72.6277 68.7474 71.2493C68.7474 70.3519 68.7474 53.2619 68.7474 52.434C69.5198 51.6448 69.9973 50.5657 69.9973 49.3767V48.1269H69.9971ZM66.5643 41.6799L68.5051 47.5019H62.4024L61.3609 41.2526H65.9716C66.241 41.2526 66.4792 41.4243 66.5643 41.6799ZM67.4974 53.3283V67.4997H32.5012V53.3283C32.8898 53.5135 33.3099 53.6425 33.7511 53.7059V65.625C33.7511 65.9701 34.0309 66.25 34.376 66.25H65.6226C65.9677 66.25 66.2475 65.9701 66.2475 65.625V53.7059C66.6886 53.6425 67.1087 53.5135 67.4974 53.3283V53.3283ZM31.2513 48.7518H37.5007V49.3767C37.5007 51.0997 36.0989 52.5014 34.376 52.5014C32.6531 52.5014 31.2513 51.0997 31.2513 49.3767V48.7518ZM45.5705 41.2526L45.0497 47.5019H38.8632L39.9048 41.2526H45.5705ZM53.1738 41.2526L53.6946 47.5019H46.304L46.8248 41.2526H53.1738ZM60.0936 41.2526L61.1352 47.5019H54.9488L54.428 41.2526H60.0936ZM49.9993 52.5014C47.9317 52.5014 46.2497 50.8193 46.2497 48.7518H53.7489C53.7489 50.8193 52.0668 52.5014 49.9993 52.5014ZM38.7505 48.7518H44.9998V49.3767C44.9998 51.0997 43.5981 52.5014 41.8752 52.5014C40.1522 52.5014 38.7505 51.0997 38.7505 49.3767V48.7518ZM64.9976 65H35.0009V53.7059C36.3264 53.5154 37.4617 52.7291 38.1256 51.6273C39.8903 54.5565 44.1727 54.4294 45.7562 51.3914C47.7171 54.5321 52.2767 54.5398 54.2424 51.3914C55.8235 54.4247 60.1051 54.5617 61.8731 51.6273C62.5369 52.729 63.6722 53.5154 64.9977 53.7059V65H64.9976ZM58.1234 52.5014C56.4005 52.5014 54.9987 51.0997 54.9987 49.3767V48.7518H61.2481V49.3767C61.2481 51.0997 59.8463 52.5014 58.1234 52.5014ZM33.4341 41.6799C33.5193 41.4243 33.7575 41.2526 34.027 41.2526H38.6377L37.5962 47.5019H31.4934L33.4341 41.6799ZM58.7483 77.9674V78.7485H41.2502V77.9674C41.2502 77.7089 41.4605 77.4987 41.7189 77.4987H58.2796C58.538 77.4987 58.7483 77.7089 58.7483 77.9674ZM56.1358 76.2488H43.8627L44.2794 73.7491H55.7191L56.1358 76.2488ZM67.4974 71.2493C67.4974 71.9385 66.9367 72.4992 66.2475 72.4992C64.3325 72.4992 35.693 72.4992 33.7511 72.4992C33.0619 72.4992 32.5012 71.9385 32.5012 71.2493V68.7496H67.4974V71.2493ZM68.7472 49.3767C68.7472 51.0997 67.3455 52.5014 65.6226 52.5014C63.8996 52.5014 62.4979 51.0997 62.4979 49.3767V48.7518H68.7472V49.3767Z" fill="#FD7400"/>
<path d="M49.3744 55.6255C49.0293 55.6255 48.7495 55.9053 48.7495 56.2504C48.7495 56.5955 49.0293 56.8754 49.3744 56.8754H62.498C62.8431 56.8754 63.1229 56.5955 63.1229 56.2504C63.1229 55.9053 62.8431 55.6255 62.498 55.6255H49.3744Z" fill="#FD7400"/>
<path d="M62.498 58.7501H49.3744C49.0293 58.7501 48.7495 59.0299 48.7495 59.3751C48.7495 59.7202 49.0293 60 49.3744 60H62.498C62.8431 60 63.1229 59.7202 63.1229 59.3751C63.1229 59.0299 62.8431 58.7501 62.498 58.7501V58.7501Z" fill="#FD7400"/>
<path d="M58.1235 61.8748H49.3744C49.0293 61.8748 48.7495 62.1546 48.7495 62.4997C48.7495 62.8448 49.0293 63.1246 49.3744 63.1246H58.1235C58.4686 63.1246 58.7484 62.8448 58.7484 62.4997C58.7484 62.1546 58.4686 61.8748 58.1235 61.8748Z" fill="#FD7400"/>
<path d="M45.6249 58.1252C45.2679 58.1252 44.5838 58.1252 44.2381 58.1252L43.7315 56.0989C43.6479 55.7641 43.3091 55.5605 42.9737 55.6442C42.6389 55.7279 42.4352 56.0672 42.519 56.402L42.9498 58.1253H40.801L41.2318 56.402C41.3156 56.0672 41.112 55.7279 40.7772 55.6442C40.4425 55.5606 40.103 55.7641 40.0194 56.0989L39.5128 58.1252C39.1641 58.1252 38.4784 58.1252 38.1259 58.1252C37.7808 58.1252 37.501 58.405 37.501 58.7501C37.501 59.0953 37.7808 59.3751 38.1259 59.3751H38.2214L38.7593 62.6025C38.8096 62.9037 39.0702 63.1247 39.3758 63.1247H44.3752C44.6807 63.1247 44.9414 62.9038 44.9917 62.6025L45.5296 59.3751H45.6251C45.9702 59.3751 46.25 59.0953 46.25 58.7501C46.25 58.405 45.9701 58.1252 45.6249 58.1252V58.1252ZM43.8456 61.8748H39.905L39.4883 59.3751H44.2623L43.8456 61.8748Z" fill="#FD7400"/>
<path d="M49.4218 70.8629C49.6181 71.3335 50.251 71.3766 50.5186 70.9707C50.7136 70.6814 50.6272 70.2893 50.3459 70.1044C49.8439 69.7655 49.1834 70.2886 49.4218 70.8629V70.8629Z" fill="#FD7400"/>
</g>
<g filter="url(#filter0_d_174_260)">
<circle cx="85" cy="30" r="20" fill="white"/>
</g>
<path d="M82.918 35.82H91.666V34.11H85.96C88.066 32.184 91.306 29.754 91.306 26.568C91.306 24.21 89.794 22.608 87.13 22.608C84.808 22.608 82.972 23.994 82.9 26.838H84.88C84.934 25.362 85.708 24.354 87.148 24.354C88.678 24.354 89.272 25.29 89.272 26.658C89.272 29.232 86.014 31.608 82.918 34.326V35.82Z" fill="#FD7400"/>
<defs>
<filter id="filter0_d_174_260" x="55" y="0" width="60" height="60" filterUnits="userSpaceOnUse" color-interpolation-filters="sRGB">
<feFlood flood-opacity="0" result="BackgroundImageFix"/>
<feColorMatrix in="SourceAlpha" type="matrix" values="0 0 0 0 0 0 0 0 0 0 0 0 0 0 0 0 0 0 127 0" result="hardAlpha"/>
<feOffset/>
<feGaussianBlur stdDeviation="5"/>
<feColorMatrix type="matrix" values="0 0 0 0 0.766667 0 0 0 0 0.766667 0 0 0 0 0.766667 0 0 0 0.5 0"/>
<feBlend mode="normal" in2="BackgroundImageFix" result="effect1_dropShadow_174_260"/>
<feBlend mode="normal" in="SourceGraphic" in2="effect1_dropShadow_174_260" result="shape"/>
</filter>
<clipPath id="clip0_174_260">
<rect width="40" height="40" fill="white" transform="translate(30 40)"/>
</clipPath>
</defs>
</svg>
