<svg width="115" height="110" viewBox="0 0 115 110" fill="none" xmlns="http://www.w3.org/2000/svg">
<circle cx="50" cy="60" r="49.5" stroke="#FD7400"/>
<g clip-path="url(#clip0_174_276)">
<path d="M63.1257 40H36.8775C34.8099 40 33.1277 41.6822 33.1277 43.7498C33.1277 80.6361 33.1058 79.4691 33.1687 79.5948C33.1687 79.6103 33.228 79.7387 33.3312 79.8331C33.4776 79.9664 33.6742 80.0206 33.86 79.9879C33.9529 79.9717 33.7979 80.024 37.0342 78.7913L40.0932 79.9565C40.2365 80.011 40.3948 80.011 40.5382 79.9565L43.5966 78.7913L46.6553 79.9565C46.8014 80.0121 46.9599 80.01 47.1002 79.9565L50.1587 78.7913L53.2171 79.9565C53.3604 80.011 53.5186 80.0111 53.6621 79.9565L56.7201 78.7913C60.0113 80.0452 59.8632 80.0213 60.0851 79.9912C60.3481 79.955 60.5455 79.7623 60.606 79.5277C60.636 79.4111 60.6258 80.5357 60.6258 62.9774C61.8486 63.7109 61.8536 63.7485 62.0843 63.7485C62.32 63.7485 62.2392 63.7594 64.1677 62.6025L65.9288 63.6594C66.3448 63.9089 66.8754 63.6092 66.8754 63.1236V43.7498C66.8755 41.6822 65.1933 40 63.1257 40V40ZM56.4976 77.5384L53.4396 78.7036L50.3812 77.5384C50.2379 77.4839 50.0796 77.4839 49.9362 77.5384L46.8778 78.7036L43.8191 77.5384C43.6758 77.4839 43.5175 77.4839 43.3742 77.5384L40.3156 78.7037L37.2567 77.5384C37.1136 77.4839 36.9549 77.4838 36.8118 77.5384L34.3777 78.4656V43.7498C34.3777 42.3713 35.4991 41.2499 36.8775 41.2499H60.3319C59.7948 41.8488 59.4395 42.6268 59.3776 43.4845C59.3747 43.5234 59.3759 42.1504 59.3759 78.4655L56.9425 77.5384C56.7993 77.4839 56.641 77.4838 56.4976 77.5384ZM65.6256 62.0196L64.4895 61.3377C64.2915 61.2189 64.0443 61.2189 63.8464 61.3376L62.0844 62.3947L60.6259 61.5197V43.7498C60.6259 43.0833 60.8854 42.4565 61.3567 41.9842C62.9297 40.4113 65.6256 41.532 65.6256 43.7498V62.0196Z" fill="#FD7400"/>
<path d="M46.8768 55.624C46.1876 55.624 45.6269 55.0632 45.6269 54.374C45.6269 54.0289 45.347 53.7491 45.0019 53.7491C44.6568 53.7491 44.377 54.0289 44.377 54.374C44.377 55.5368 45.1749 56.5166 46.2518 56.7947V57.4988C46.2518 57.844 46.5317 58.1238 46.8768 58.1238C47.2219 58.1238 47.5017 57.844 47.5017 57.4988V56.7947C48.5787 56.5166 49.3766 55.5367 49.3766 54.374C49.3766 52.9956 48.2552 51.8742 46.8768 51.8742C46.1876 51.8742 45.6269 51.3135 45.6269 50.6243C45.6269 49.9351 46.1876 49.3744 46.8768 49.3744C47.566 49.3744 48.1267 49.9351 48.1267 50.6243C48.1267 50.9694 48.4065 51.2493 48.7517 51.2493C49.0968 51.2493 49.3766 50.9694 49.3766 50.6243C49.3766 49.4616 48.5787 48.4818 47.5017 48.2036V47.4995C47.5017 47.1544 47.2219 46.8745 46.8768 46.8745C46.5317 46.8745 46.2518 47.1544 46.2518 47.4995V48.2036C45.1749 48.4818 44.377 49.4616 44.377 50.6243C44.377 52.0027 45.4984 53.1241 46.8768 53.1241C47.566 53.1241 48.1267 53.6849 48.1267 54.374C48.1267 55.0632 47.566 55.624 46.8768 55.624Z" fill="#FD7400"/>
<path d="M56.8759 67.4982H41.2519C40.9068 67.4982 40.627 67.778 40.627 68.1231C40.627 68.4683 40.9068 68.7481 41.2519 68.7481H56.8759C57.221 68.7481 57.5008 68.4683 57.5008 68.1231C57.5008 67.778 57.221 67.4982 56.8759 67.4982Z" fill="#FD7400"/>
<path d="M56.8759 64.3734H41.2519C40.9068 64.3734 40.627 64.6532 40.627 64.9983C40.627 65.3435 40.9068 65.6233 41.2519 65.6233H56.8759C57.221 65.6233 57.5008 65.3435 57.5008 64.9983C57.5008 64.6532 57.221 64.3734 56.8759 64.3734Z" fill="#FD7400"/>
<path d="M41.2519 62.4985H56.8759C57.221 62.4985 57.5008 62.2187 57.5008 61.8736C57.5008 61.5284 57.221 61.2486 56.8759 61.2486H41.2519C40.9068 61.2486 40.627 61.5284 40.627 61.8736C40.627 62.2187 40.9068 62.4985 41.2519 62.4985Z" fill="#FD7400"/>
<path d="M52.5012 70.623H41.2519C40.9068 70.623 40.627 70.9028 40.627 71.2479C40.627 71.593 40.9068 71.8729 41.2519 71.8729H52.5012C52.8463 71.8729 53.1261 71.593 53.1261 71.2479C53.1261 70.9028 52.8463 70.623 52.5012 70.623Z" fill="#FD7400"/>
<path d="M38.1273 61.2486H36.8774C36.5323 61.2486 36.2524 61.5284 36.2524 61.8736C36.2524 62.2187 36.5323 62.4985 36.8774 62.4985H38.1273C38.4725 62.4985 38.7523 62.2187 38.7523 61.8736C38.7523 61.5284 38.4725 61.2486 38.1273 61.2486Z" fill="#FD7400"/>
<path d="M38.1273 64.3734H36.8774C36.5323 64.3734 36.2524 64.6532 36.2524 64.9983C36.2524 65.3435 36.5323 65.6233 36.8774 65.6233H38.1273C38.4725 65.6233 38.7523 65.3435 38.7523 64.9983C38.7523 64.6532 38.4725 64.3734 38.1273 64.3734Z" fill="#FD7400"/>
<path d="M38.1273 67.4982H36.8774C36.5323 67.4982 36.2524 67.778 36.2524 68.1231C36.2524 68.4683 36.5323 68.7481 36.8774 68.7481H38.1273C38.4725 68.7481 38.7523 68.4683 38.7523 68.1231C38.7523 67.778 38.4725 67.4982 38.1273 67.4982Z" fill="#FD7400"/>
<path d="M38.1273 70.623H36.8774C36.5323 70.623 36.2524 70.9028 36.2524 71.2479C36.2524 71.593 36.5323 71.8729 36.8774 71.8729H38.1273C38.4725 71.8729 38.7523 71.593 38.7523 71.2479C38.7523 70.9028 38.4725 70.623 38.1273 70.623Z" fill="#FD7400"/>
</g>
<g filter="url(#filter0_d_174_276)">
<circle cx="85" cy="30" r="20" fill="white"/>
</g>
<path d="M83.044 26.118H85.042C85.168 25.2 85.834 24.336 87.274 24.336C88.678 24.336 89.416 25.092 89.416 26.226C89.416 27.63 88.282 28.17 86.428 28.188H85.942V29.88H86.41C88.552 29.88 89.668 30.474 89.668 32.202C89.668 33.426 88.912 34.362 87.382 34.362C85.834 34.362 84.934 33.426 84.844 32.202H82.864C82.99 34.776 84.916 36.072 87.4 36.072C90.136 36.072 91.612 34.488 91.612 32.4C91.612 30.582 90.73 29.448 89.362 29.034V28.962C90.388 28.62 91.378 27.558 91.378 25.992C91.378 24.084 89.956 22.572 87.346 22.572C84.952 22.572 83.188 23.85 83.044 26.118Z" fill="#FD7400"/>
<defs>
<filter id="filter0_d_174_276" x="55" y="0" width="60" height="60" filterUnits="userSpaceOnUse" color-interpolation-filters="sRGB">
<feFlood flood-opacity="0" result="BackgroundImageFix"/>
<feColorMatrix in="SourceAlpha" type="matrix" values="0 0 0 0 0 0 0 0 0 0 0 0 0 0 0 0 0 0 127 0" result="hardAlpha"/>
<feOffset/>
<feGaussianBlur stdDeviation="5"/>
<feColorMatrix type="matrix" values="0 0 0 0 0.766667 0 0 0 0 0.766667 0 0 0 0 0.766667 0 0 0 0.5 0"/>
<feBlend mode="normal" in2="BackgroundImageFix" result="effect1_dropShadow_174_276"/>
<feBlend mode="normal" in="SourceGraphic" in2="effect1_dropShadow_174_276" result="shape"/>
</filter>
<clipPath id="clip0_174_276">
<rect width="40" height="40" fill="white" transform="translate(30 40)"/>
</clipPath>
</defs>
</svg>
