<svg width="115" height="110" viewBox="0 0 115 110" fill="none" xmlns="http://www.w3.org/2000/svg">
<circle cx="50" cy="60" r="49.5" stroke="#FD7400"/>
<path d="M44.375 73.75C43.3411 73.75 42.5 74.5912 42.5 75.625C42.5 76.6588 43.3411 77.5 44.375 77.5C45.4089 77.5 46.25 76.6588 46.25 75.625C46.25 74.5912 45.4089 73.75 44.375 73.75ZM44.375 76.25C44.0304 76.25 43.75 75.9696 43.75 75.625C43.75 75.2804 44.0304 75 44.375 75C44.7196 75 45 75.2804 45 75.625C45 75.9696 44.7196 76.25 44.375 76.25Z" fill="#FD7400"/>
<path d="M63.7484 75.5627C63.7154 74.5577 62.888 73.75 61.875 73.75C60.8411 73.75 60 74.5912 60 75.625C60 76.6588 60.8411 77.5 61.875 77.5C62.888 77.5 63.7154 76.6923 63.7484 75.6873C63.7526 75.645 63.7526 75.6051 63.7484 75.5627ZM61.875 76.25C61.5304 76.25 61.25 75.9696 61.25 75.625C61.25 75.2804 61.5304 75 61.875 75C62.2196 75 62.5 75.2804 62.5 75.625C62.5 75.9696 62.2196 76.25 61.875 76.25Z" fill="#FD7400"/>
<path d="M68.0175 71.25C68.1711 70.817 68.125 71.6342 68.125 59.375C68.125 58.3412 67.2838 57.5 66.25 57.5C65.7018 57.5 62.2653 57.5 61.7675 57.5C61.9211 57.067 61.875 57.8842 61.875 45.625C61.875 44.5912 61.0338 43.75 60 43.75C56.8095 43.75 53.1524 43.75 50 43.75C48.9662 43.75 48.125 44.5912 48.125 45.625C48.125 57.8859 48.0792 57.0679 48.2325 57.5C47.7325 57.5 44.3042 57.5 43.75 57.5C42.7162 57.5 41.875 58.3412 41.875 59.375C41.875 71.6359 41.8292 70.8179 41.9825 71.25H40V43.75C40 41.6822 38.3177 40 36.25 40H31.875C30.8411 40 30 40.8412 30 41.875C30 42.9088 30.8411 43.75 31.875 43.75H35.7812C36.0398 43.75 36.25 43.9602 36.25 44.2188V74.375C36.25 75.4088 37.0911 76.25 38.125 76.25H40.0454C40.3497 78.3673 42.1749 80 44.375 80C46.5751 80 48.4004 78.3673 48.7046 76.25H57.5453C57.8496 78.3673 59.6748 80 61.8749 80C64.075 80 65.9003 78.3673 66.2045 76.25H68.125C69.1589 76.25 70 75.4088 70 74.375V73.125C70 72.1752 69.2787 71.25 68.0175 71.25ZM66.875 59.375V70.625C66.875 70.9696 66.5946 71.25 66.25 71.25H56.25C55.9054 71.25 55.625 70.9696 55.625 70.625V59.375C55.625 59.0304 55.9054 58.75 56.25 58.75H58.75V61.875C58.75 62.2202 59.0298 62.5 59.375 62.5H63.125C63.4702 62.5 63.75 62.2202 63.75 61.875V58.75H66.25C66.5946 58.75 66.875 59.0304 66.875 59.375ZM57.5454 75H48.7046C48.5648 74.027 48.1038 73.1568 47.4327 72.5H58.8173C58.1462 73.1568 57.6852 74.027 57.5454 75ZM62.5 61.25H60V58.75H62.5V61.25ZM56.25 45V47.5H53.75V45H56.25ZM49.375 56.875V45.625C49.375 45.2804 49.6554 45 50 45H52.5V48.125C52.5 48.4702 52.7798 48.75 53.125 48.75H56.875C57.2202 48.75 57.5 48.4702 57.5 48.125V45H60C60.3446 45 60.625 45.2804 60.625 45.625V56.875C60.625 57.2196 60.3446 57.5 60 57.5C55.0746 57.5 52.9008 57.5 50 57.5C49.6554 57.5 49.375 57.2196 49.375 56.875ZM50 58.75V61.25H47.5V58.75H50ZM43.125 70.625V59.375C43.125 59.0304 43.4054 58.75 43.75 58.75H46.25V61.875C46.25 62.2202 46.5298 62.5 46.875 62.5H50.625C50.9702 62.5 51.25 62.2202 51.25 61.875V58.75H53.75C54.0946 58.75 54.375 59.0304 54.375 59.375V70.625C54.375 70.9696 54.0946 71.25 53.75 71.25H43.75C43.4054 71.25 43.125 70.9696 43.125 70.625ZM37.5 48.125H38.75V71.25H37.5V48.125ZM35.7812 42.5H31.875C31.5304 42.5 31.25 42.2196 31.25 41.875C31.25 41.5304 31.5304 41.25 31.875 41.25H36.25C37.6285 41.25 38.75 42.3715 38.75 43.75V46.875H37.5V44.2188C37.5 43.271 36.729 42.5 35.7812 42.5ZM37.5 74.375V72.5H41.3173C40.6462 73.1568 40.1852 74.027 40.0454 75H38.125C37.7804 75 37.5 74.7196 37.5 74.375ZM44.375 78.75C42.6519 78.75 41.25 77.3481 41.25 75.625C41.25 73.9019 42.6519 72.5 44.375 72.5C46.0981 72.5 47.5 73.9019 47.5 75.625C47.5 77.3481 46.0981 78.75 44.375 78.75ZM61.875 78.75C60.1519 78.75 58.75 77.3481 58.75 75.625C58.75 73.9019 60.1519 72.5 61.875 72.5C63.5981 72.5 65 73.9019 65 75.625C65 77.3481 63.5981 78.75 61.875 78.75ZM68.75 74.375C68.75 74.7196 68.4696 75 68.125 75H66.2046C66.0648 74.027 65.6038 73.1568 64.9327 72.5H68.125C68.4696 72.5 68.75 72.7804 68.75 73.125V74.375Z" fill="#FD7400"/>
<path d="M51.25 70H52.5C52.8452 70 53.125 69.7202 53.125 69.375C53.125 69.0298 52.8452 68.75 52.5 68.75H51.25C50.9048 68.75 50.625 69.0298 50.625 69.375C50.625 69.7202 50.9048 70 51.25 70Z" fill="#FD7400"/>
<path d="M63.75 68.75C63.4048 68.75 63.125 69.0298 63.125 69.375C63.125 69.7202 63.4048 70 63.75 70H65C65.3452 70 65.625 69.7202 65.625 69.375C65.625 69.0298 65.3452 68.75 65 68.75H63.75Z" fill="#FD7400"/>
<path d="M57.5 56.25H58.75C59.0952 56.25 59.375 55.9702 59.375 55.625C59.375 55.2798 59.0952 55 58.75 55H57.5C57.1548 55 56.875 55.2798 56.875 55.625C56.875 55.9702 57.1548 56.25 57.5 56.25Z" fill="#FD7400"/>
<g filter="url(#filter0_d_174_296)">
<circle cx="85" cy="30" r="20" fill="white"/>
</g>
<path d="M89.344 36H91.36V33.264H93.034V31.482H91.36V23.04H88.876L82.828 31.716V33.264H89.344V36ZM85.186 31.482L89.434 25.128V31.482H85.186Z" fill="#FD7400"/>
<defs>
<filter id="filter0_d_174_296" x="55" y="0" width="60" height="60" filterUnits="userSpaceOnUse" color-interpolation-filters="sRGB">
<feFlood flood-opacity="0" result="BackgroundImageFix"/>
<feColorMatrix in="SourceAlpha" type="matrix" values="0 0 0 0 0 0 0 0 0 0 0 0 0 0 0 0 0 0 127 0" result="hardAlpha"/>
<feOffset/>
<feGaussianBlur stdDeviation="5"/>
<feColorMatrix type="matrix" values="0 0 0 0 0.766667 0 0 0 0 0.766667 0 0 0 0 0.766667 0 0 0 0.5 0"/>
<feBlend mode="normal" in2="BackgroundImageFix" result="effect1_dropShadow_174_296"/>
<feBlend mode="normal" in="SourceGraphic" in2="effect1_dropShadow_174_296" result="shape"/>
</filter>
</defs>
</svg>
