<svg width="50" height="50" viewBox="0 0 50 50" fill="none" xmlns="http://www.w3.org/2000/svg">
<g clip-path="url(#clip0_174_80)">
<path d="M24.9766 28C24.4375 28 24 28.4375 24 28.9766C24 29.5156 24.4375 29.9531 24.9766 29.9531C25.5156 29.9531 25.9531 29.5156 25.9531 28.9766C25.9531 28.4375 25.5156 28 24.9766 28Z" fill="#FD7400"/>
<path d="M38.6076 39.514L33.966 37.9671L32.2997 34.6344C33.8009 33.1064 34.8432 31.0848 35.1946 28.9761L35.4024 27.7305H37.1797C38.7951 27.7305 40.1094 26.4162 40.1094 24.8008V18.6484C40.1094 10.5713 33.5381 4 25.4609 4C17.3631 4 10.8125 10.5524 10.8125 18.6484V24.8008C10.8125 26.0738 11.629 27.1594 12.7656 27.5625V28.707C12.7656 30.3225 14.0799 31.6367 15.6953 31.6367H16.5529C16.9763 32.5563 17.5242 33.4081 18.191 34.1732C18.3293 34.3322 18.4735 34.4863 18.6213 34.6362L16.9559 37.9671L12.3142 39.5141C6.91719 41.3137 3 46.9952 3 53.0234C3 53.5628 3.43721 54 3.97656 54H46.9453C47.4846 54 47.9219 53.5628 47.9219 53.0234C47.9219 46.9952 44.0048 41.3137 38.6076 39.514ZM38.1562 24.8008C38.1562 25.3393 37.7182 25.7773 37.1797 25.7773H35.6893C35.9375 23.8545 36.1029 21.8083 36.1694 19.793C36.1714 19.7361 36.173 19.6809 36.1747 19.625H38.1562V24.8008ZM13.7422 25.7773C13.2037 25.7773 12.7656 25.3393 12.7656 24.8008V19.625H14.7479C14.7511 19.7269 14.7545 19.8292 14.7583 19.9322C14.7584 19.9357 14.7586 19.9392 14.7587 19.9427C14.7587 19.943 14.7587 19.9433 14.7587 19.9436C14.8271 21.9037 14.9903 23.8968 15.2329 25.7772H13.7422V25.7773ZM15.6953 29.6836C15.1568 29.6836 14.7188 29.2455 14.7188 28.707V27.7305H15.5193L15.7271 28.9765C15.7668 29.2133 15.8155 29.4492 15.8719 29.6836H15.6953ZM14.7204 17.6719H12.8027C13.2974 11.1269 18.7595 5.95312 25.4609 5.95312C32.1326 5.95312 37.6187 11.1262 38.119 17.6719H36.2016C36.1313 12.2786 31.7394 7.90625 26.3351 7.90625H24.587C19.1828 7.90625 14.7906 12.2786 14.7204 17.6719ZM24.5869 9.85938H26.335C30.7108 9.85938 34.2525 13.4386 34.25 17.8096C34.25 18.1169 34.2476 18.3845 34.2424 18.6279C34.2424 18.6311 34.2423 18.6343 34.2423 18.6375L33.0208 18.463C29.7024 17.9892 26.5692 16.4226 24.1983 14.0517C24.0151 13.8686 23.7668 13.7656 23.5078 13.7656C20.8852 13.7656 18.3746 14.9605 16.715 16.9793C17.124 13.0028 20.4856 9.85938 24.5869 9.85938ZM17.8965 29.6836C17.4076 28.0573 16.8482 23.2722 16.7246 20.2058L18.039 18.4532C19.2461 16.8442 21.1241 15.8445 23.1219 15.7298C25.7505 18.2313 29.1511 19.8833 32.7446 20.3964L34.1823 20.6019C34.0862 22.6414 33.8898 24.6881 33.6085 26.5704C33.6084 26.571 33.6083 26.5717 33.6082 26.5724C33.5188 27.1775 33.4482 27.567 33.2682 28.6548C32.751 31.7568 30.4363 34.562 27.3808 35.326C26.1232 35.6399 24.7984 35.6398 23.5416 35.326C21.6337 34.849 19.8843 33.5289 18.7553 31.6367H20.7461C21.1492 32.7733 22.2347 33.5898 23.5078 33.5898H25.4609C27.0796 33.5898 28.3906 32.2789 28.3906 30.6602C28.3906 29.0447 27.0764 27.7305 25.4609 27.7305H23.5078C22.2063 27.7305 21.1369 28.5711 20.7444 29.6836H17.8965ZM23.4257 37.3023C24.0955 37.4435 24.7784 37.5156 25.4609 37.5156C25.9952 37.5156 26.5296 37.4709 27.0579 37.3842L25.3323 39.2091L23.4257 37.3023ZM23.9897 40.6288L20.8923 43.9044C20.0396 42.2722 19.3068 40.5734 18.7059 38.8344L19.869 36.508L23.9897 40.6288ZM30.8873 36.1771L32.2158 38.8343C31.6139 40.5763 30.881 42.2756 30.0291 43.9059L26.7139 40.5906L30.8873 36.1771ZM22.5312 30.6602C22.5312 30.121 22.9686 29.6836 23.5078 29.6836H25.4609C25.9994 29.6836 26.4375 30.1217 26.4375 30.6602C26.4375 31.1994 26.0001 31.6367 25.4609 31.6367H23.5078C22.9693 31.6367 22.5312 31.1986 22.5312 30.6602ZM4.99219 52.0469C5.3792 47.2091 8.59883 42.8118 12.9318 41.3669L17.0426 39.997C17.7957 42.0795 18.7287 44.1036 19.8222 46.0263C19.824 46.0296 19.8258 46.0329 19.8276 46.0361C19.8276 46.0362 19.8277 46.0362 19.8277 46.0363C20.6267 47.4415 21.5259 48.8146 22.5008 50.1183L23.7021 52.0469H4.99219ZM25.4609 51.1764L24.1365 49.0501C24.1217 49.0263 24.1059 49.0031 24.0891 48.9807C23.2982 47.9258 22.5605 46.8226 21.8887 45.6934L25.3714 42.0104L29.0411 45.6801C28.3647 46.8175 27.6245 47.9253 26.833 48.9805C26.7852 49.0442 26.853 48.9437 25.4609 51.1764ZM27.2197 52.0469L28.421 50.1184C29.4002 48.8098 30.3059 47.4256 31.1128 46.0039C31.1177 45.9953 31.1223 45.9865 31.1271 45.9779C31.1277 45.9769 31.1283 45.9759 31.1289 45.9748C32.2085 44.0705 33.1317 42.064 33.8793 39.997L37.9899 41.3669C42.323 42.8118 45.5427 47.2091 45.9297 52.0469H27.2197Z" fill="#FD7400"/>
<path d="M27.3366 30.5588C26.684 29.2525 25.728 28.0919 24.5721 27.2027C24.1445 26.8737 23.5314 26.9537 23.2026 27.3812C22.8737 27.8087 22.9537 28.4218 23.3811 28.7507C24.3044 29.461 25.0679 30.388 25.5892 31.4317C25.8308 31.915 26.4177 32.1095 26.8993 31.8689C27.3817 31.6279 27.5775 31.0414 27.3366 30.5588Z" fill="#FD7400"/>
</g>
<defs>
<clipPath id="clip0_174_80">
<rect width="50" height="50" fill="white"/>
</clipPath>
</defs>
</svg>
