<svg width="58" height="30" viewBox="0 0 58 30" fill="none" xmlns="http://www.w3.org/2000/svg">
<path d="M39.5471 27.1145L39.8117 25.6216H37.009V25.5973L37.7909 25.0389C39.1621 23.9708 40.4372 22.8541 40.4372 21.2398C40.4372 20.026 39.5831 19.0914 38.0074 19.0914C37.1053 19.0914 36.2031 19.3827 35.5776 19.7711L35.9265 21.0213C36.3354 20.7664 36.8887 20.56 37.5864 20.56C38.272 20.56 38.6569 20.9606 38.6569 21.5189C38.6569 22.4657 37.6586 23.3882 36.0949 24.6748L34.4109 25.9857L34.1943 27.1145H39.5471Z" fill="#FD7400"/>
<path d="M45.4533 27.1145L45.8141 25.2089H46.7403L46.9809 23.8616H46.0667L46.9328 19.2249H44.8037L41.0749 24.0315L40.8584 25.2089H44.1903L43.8294 27.1145H45.4533ZM42.807 23.8616L42.819 23.8373L44.1061 22.1623C44.479 21.6403 44.7797 21.1427 45.1285 20.6086H45.1766C45.0563 21.1063 44.912 21.6525 44.8037 22.1501L44.4429 23.8616H42.807Z" fill="#FD7400"/>
<path d="M47.9915 27.6L52.1775 18.8H50.9505L46.7646 27.6H47.9915Z" fill="#FD7400"/>
<path d="M52.6246 19.2249L52.3359 20.7178H55.74V20.7421C54.3326 22.8663 52.9133 24.9904 51.4939 27.1145H53.4185C54.8499 24.869 56.2813 22.6235 57.7127 20.3901L57.9292 19.2249H52.6246Z" fill="#FD7400"/>
<path d="M4.91336 30C4.02144 26.5209 4.0623 22.8738 5.03194 19.4148C6.00159 15.9559 7.86688 12.8032 10.4457 10.2648C18.2313 2.60772 30.6414 2.19587 38.9194 9.04604L36.5413 11.386C36.4208 11.5057 36.3531 11.6673 36.3531 11.8357C36.3531 12.0041 36.4208 12.1657 36.5413 12.2854C36.6352 12.3744 36.7545 12.433 36.8833 12.4535L45.8998 14.1984C46.0033 14.2195 46.1105 14.2152 46.2118 14.1859C46.3132 14.1566 46.4057 14.1031 46.4811 14.0303C46.5549 13.9557 46.6091 13.8644 46.6389 13.7645C46.6687 13.6646 46.6732 13.5591 46.652 13.457L44.886 4.57956C44.8635 4.46651 44.8102 4.3616 44.7318 4.27604C44.6533 4.19049 44.5527 4.12751 44.4407 4.09384C44.3286 4.06017 44.2094 4.05708 44.0957 4.08489C43.982 4.11271 43.8782 4.17039 43.7953 4.25176L41.9506 6.06559C31.9972 -2.41182 16.8773 -2.00333 7.41624 7.29273C4.44355 10.2194 2.25798 13.8272 1.05644 17.7911C-0.145099 21.7551 -0.324875 25.9507 0.533309 30H4.91336Z" fill="#99CC33"/>
<path d="M14.5185 13.34L14.5173 13.3412C13.6247 14.2288 13.6247 15.6677 14.5173 16.5552L26.2585 28.2297C27.1511 29.1172 28.5983 29.1172 29.4909 28.2297L29.4921 28.2285C30.3847 27.341 30.3847 25.902 29.4921 25.0145L17.7509 13.34C16.8583 12.4525 15.4111 12.4525 14.5185 13.34Z" fill="#99CC32"/>
<path d="M32.7824 16.2659C33.0993 15.9508 33.0995 15.4403 32.783 15.1256C32.4665 14.8109 31.9531 14.8112 31.6363 15.1262L19.8324 26.863C19.5156 27.178 19.5153 27.6885 19.8318 28.0032C20.1483 28.3179 20.6617 28.3177 20.9786 28.0026L32.7824 16.2659Z" fill="#99CC32"/>
<path d="M24.3384 26C26.0048 26 27.3556 24.6569 27.3556 23C27.3556 21.3431 26.0048 20 24.3384 20C22.6721 20 21.3213 21.3431 21.3213 23C21.3213 24.6569 22.6721 26 24.3384 26Z" fill="#99CC32"/>
</svg>
